<svg xmlns="http://www.w3.org/2000/svg" viewBox="0 0 33.867 33.867"><path style="fill: currentColor" d="M7.01 5.875A2.472 2.472 0 004.54 8.347 2.472 2.472 0 007.01 10.82a2.472 2.472 0 002.472-2.472 2.472 2.472 0 00-2.472-2.472zm9.923 0a2.472 2.472 0 00-2.472 2.472 2.472 2.472 0 002.472 2.472 2.472 2.472 0 002.473-2.472 2.472 2.472 0 00-2.473-2.472zm9.923 0a2.472 2.472 0 00-2.472 2.472 2.472 2.472 0 002.472 2.472 2.472 2.472 0 002.472-2.472 2.472 2.472 0 00-2.472-2.472zM7.01 14.461a2.472 2.472 0 00-2.472 2.472 2.472 2.472 0 002.472 2.473 2.472 2.472 0 002.472-2.473 2.472 2.472 0 00-2.472-2.472zm9.922 0a2.472 2.472 0 00-2.472 2.472 2.472 2.472 0 002.472 2.473 2.472 2.472 0 002.473-2.473 2.472 2.472 0 00-2.473-2.472zm9.923 0a2.472 2.472 0 00-2.472 2.472 2.472 2.472 0 002.472 2.473 2.472 2.472 0 002.472-2.473 2.472 2.472 0 00-2.472-2.472zM7.01 23.047a2.472 2.472 0 00-2.472 2.472 2.472 2.472 0 002.472 2.473 2.472 2.472 0 002.472-2.473 2.472 2.472 0 00-2.472-2.472zm9.922 0a2.472 2.472 0 00-2.472 2.472 2.472 2.472 0 002.472 2.473 2.472 2.472 0 002.473-2.473 2.472 2.472 0 00-2.473-2.472zm9.923 0a2.472 2.472 0 00-2.472 2.472 2.472 2.472 0 002.472 2.473 2.472 2.472 0 002.472-2.473 2.472 2.472 0 00-2.472-2.472z"/></svg>