<svg xmlns="http://www.w3.org/2000/svg" width="128" height="128" viewBox="0 0 33.867 33.867">
  <path d="M15.51 19.412c.351.177.748.332 1.166.46.67.232 1.277.359 1.897.249.135-.027.252-.059.349-.089.338-.105.853-.313.796-.282.423-.228.75-.58.961-1.002a3.66 3.66 0 00.288-1.118c.038-.362.04-.777-.037-1.227-.117-.807-.4-1.648-.908-2.357a4.852 4.852 0 00-2.285-1.744c-.877-.336-1.697-.218-2.192.011-.492.229-.658.523-.658.523s.26-.215.732-.279c.499-.068 1.127.064 1.804.435.688.399 1.257.973 1.744 1.662.422.596.79 1.232 1.028 1.923.12.375.186.713.185 1.017a1.56 1.56 0 01-.244.864c-.166.285-.447.48-.76.638-.072.036-.185.175-.615.229a3.22 3.22 0 01-.284.022c-.428.018-.726-.196-1.424-.479-.377-.172-.691-.33-1.023-.496-.36-.18-.708-.353-1.092-.565-.827-.472-1.324-.786-1.673-1.267a1.115 1.115 0 01-.067-.1.853.853 0 01-.129-.58c.015-.089.068-.238.104-.338a.82.82 0 01.14-.25c.838-1.13 1.81-2.294 1.81-2.294s-1.351.703-2.348 1.864c-.109.14-.191.291-.247.45-.082.228-.107.8.137 1.404.02.05.045.104.073.16.31.614.807 1.226 1.622 1.83.373.285.762.532 1.15.726z"/>
  <path d="M22.991 18.453c.009.187.008.38-.006.578a4.161 4.161 0 01-1.219 2.679c-.401.437-1.036.597-1.407.667a3.96 3.96 0 01-.867.075c-.158-.01-.204-.029-.434-.042a12.727 12.727 0 01-2.947-.506c-.31-.094-.638-.208-.981-.35a12.875 12.875 0 01-2.213-1.19c-.747-.51-1.492-1.058-1.9-1.756a2.149 2.149 0 01-.293-.706c-.138-.582-.121-1.283-.13-1.994.016-1.066.111-2.074.294-3.032.165-.811.566-1.449 1.154-1.701 1.262-.588 2.372-.323 2.372-.323s-1.012-.474-2.51-.06c-.76.234-1.43.934-1.712 1.91a13.984 13.984 0 00-.577 3.165c-.069.717-.096 1.512.11 2.289.091.338.23.679.433 1.004.62.901 1.516 1.462 2.345 1.895.875.469 1.709.795 2.414 1.048.358.129.707.248 1.02.351 1.02.337 2.03.631 3.079.692.223.013.327-.006.473-.013-.093.003.638-.003.969-.035.434-.04 1.21-.165 1.913-.709a4.846 4.846 0 001.764-3.268c.02-.248.024-.49.013-.72-.045-1-.359-1.986-.841-2.896a10.89 10.89 0 00-2.573-3.243c-.76-.66-1.512-1.227-1.808-1.388a6.82 6.82 0 00-.841-.387c-1.314-.477-2.709-.336-3.68-.218-.994.12-1.644.205-1.644.205s.654.059 1.657.097c.976.037 2.325.068 3.413.55.262.111.515.234.761.368.354.192.994.438 1.736 1.203.65.67 1.432 1.744 2.062 3.244.349.861.565 1.709.601 2.517zM25.82 10.356c.03-.813-.599-1.255-.956-1.4l-.054-.02c-.226-.077-.162-.104-.263-.143-.29-.115-.665-.08-1.014-.116-.28-.029-.619-.084-1.008-.033-.192.023-.38.068-.548.142-1.241.542-1.468 1.877-1.468 1.877s1.068-.57 1.883-.925c.122-.054.254-.124.382-.188.273-.131.526-.252.758-.281.313-.04.545.122.745.203.069.028.073-.044.193.074l.021.022c.116.134.21.533.192.731a.894.894 0 01-.016.12c-.029.368-.151.728-.307.958-.157.234-.257.157-.376.248-.471.362-.923 1.022-.923 1.022s.81-.01 1.366-.46c.135-.11.08-.2.349-.394.242-.174.689-.459.964-1.028.048-.139.075-.277.08-.41zM10.244 8.166c.14-.18.34-.494.465-.598a.349.349 0 01.047-.033c.082-.054.08.001.13-.012.157-.039.338-.157.552-.076.22.082.449.393.681.586a43.809 43.809 0 001.303 1.023s.073-.256.014-.649c-.06-.402-.262-.882-.675-1.193-.393-.296-.887-.292-1.214-.316-.312-.023-.522-.128-.8-.083-.077.012-.043.053-.185.066a2.13 2.13 0 01-.085.009c-.287.027-.82.136-1.152.568-.125.163-.21.371-.249.59-.05.372.023.66.055.837.049.267-.054.286-.038.427.068.606.644.973.644.973s.11-.656.055-1.06c-.015-.109-.138-.12-.077-.325.041-.14.155-.329.309-.49.077-.089.159-.165.22-.244zM6.562 17.906c-.14-.283-.397-.696-.497-.917a2.278 2.278 0 01-.014-.036c-.081-.205-.007-.172-.01-.257-.011-.233-.118-.497-.021-.777.085-.248.291-.483.515-.67.05-.051.098-.096.146-.142.248-.235.576-.434.968-.594.365-.149.67-.212.67-.212s-.237-.204-.695-.315c-.464-.113-1.105-.08-1.62.363a1.492 1.492 0 00-.26.297c-.24.423-.261.84-.299 1.147-.045.38-.167.625-.149.942.006.104.063.047.041.309l-.003.047c-.034.322-.056.875.193 1.346.187.356.526.64.868.818.2.096.373.137.49.165.33.08.322.17.5.196.827.117 1.265-.59 1.265-.59s-.707-.04-1.175-.095c-.119-.014-.175.103-.361-.04a.757.757 0 01-.205-.258c-.14-.216-.235-.5-.347-.727zM16.518 25.881c-.264.023-.657.078-.956.098-.113.002-.21 0-.28-.005-.233-.015-.21-.08-.28-.107-.253-.099-.572-.132-.831-.366-.196-.176-.363-.45-.503-.747-.066-.13-.115-.247-.173-.37a5.164 5.164 0 01-.432-1.35c-.075-.444-.066-.795-.066-.795s-.257.24-.452.728c-.2.499-.282 1.192.015 1.845.083.181.201.353.344.506.316.32.658.499.92.657.369.224.571.451.91.583.11.043.073-.034.34.106.075.039.178.092.305.147.352.17.823.308 1.295.23.45-.075.881-.346 1.17-.71.18-.254.24-.497.275-.652.078-.353.136-.399.159-.557a.428.428 0 00.004-.065c-.01-.878-.75-1.401-.75-1.401s.057.865.048 1.402c0 .016.001.031.003.045.01.07.101.183-.017.372a.66.66 0 01-.305.254c-.233.137-.462.129-.743.153zM27.433 20.55c.019.118.04.228.05.367a2.18 2.18 0 01-.008.684c-.038.195-.108.176-.138.221-.102.152-.189.347-.345.478a.691.691 0 01-.181.116c-.37.162-.765.065-1.25.064-.202 0-.417.006-.63.013-.4-.01-.7.12-.895.183-.387.14-.692-.06-.692-.06s.028.457.685.608c.277.075.584.09.751.177.247.084.513.134.784.132.643-.005 1.159-.352 1.536-.613.085-.058.16-.107.236-.156.227-.154.459-.305.611-.53.068-.1-.01-.074.174-.32.128-.173.336-.48.425-.917a1.876 1.876 0 00-.005-.651c-.151-.77-.767-1.187-1.101-1.408-.295-.195-.252-.285-.412-.385-.73-.455-1.51-.094-1.51-.094s.652.385 1.14.687c.125.077.219-.009.388.221.17.23.326.807.386 1.183z"/>
</svg>

